<?xml version="1.0" standalone="no"?>
<svg viewBox="0 0 200 200" xmlns="http://www.w3.org/2000/svg">
  <path fill="#FDDE0B" d="M42,-67.7C53.5,-58,61.1,-44.7,65.7,-31.1C70.3,-17.4,71.9,-3.4,70.3,10.4C68.8,24.2,64,37.8,55.7,49.4C47.4,61.1,35.5,70.8,23.2,70.6C10.9,70.3,-1.9,60.1,-16.4,55.8C-30.9,51.5,-47.2,53.3,-59.6,47.1C-71.9,40.9,-80.4,26.8,-80.5,12.8C-80.6,-1.2,-72.3,-15.2,-64.5,-28.3C-56.7,-41.3,-49.3,-53.3,-38.7,-63.4C-28,-73.5,-14,-81.6,0.6,-82.6C15.3,-83.6,30.5,-77.5,42,-67.7Z" transform="translate(100 100)" />
</svg>
